<svg width="15" height="14" viewBox="0 0 15 14" fill="none" xmlns="http://www.w3.org/2000/svg">
<g clip-path="url(#clip0)">
<path d="M10.031 7.41969C9.356 6.43692 8.20644 5.8501 6.95583 5.8501C5.70533 5.8501 4.55566 6.43692 3.8808 7.41969L2.25437 9.78781C1.98451 10.1808 1.86 10.6346 1.89422 11.1002C1.92844 11.5659 2.1183 11.9996 2.44319 12.3545C2.76832 12.7093 3.19793 12.9518 3.68556 13.0558C4.1732 13.1597 4.67308 13.1154 5.13107 12.9275L5.16094 12.9151C6.31347 12.4515 7.6308 12.4556 8.78047 12.9275C9.07699 13.0492 9.39113 13.1107 9.70813 13.1107C9.88048 13.1107 10.0539 13.0925 10.2256 13.0559C10.7133 12.952 11.1429 12.7095 11.4681 12.3547C11.7931 11.9999 11.9831 11.5661 12.0174 11.1004C12.0518 10.6346 11.9273 10.1808 11.6574 9.78771L10.031 7.41969ZM10.7999 11.8213C10.3862 12.2727 9.71694 12.4154 9.13444 12.1763C8.44207 11.8921 7.69889 11.75 6.95548 11.75C6.21276 11.75 5.4697 11.892 4.77779 12.1759L4.75811 12.184C4.18006 12.4122 3.52066 12.2677 3.11153 11.8213C2.69828 11.3698 2.65125 10.7306 2.99457 10.2307L4.62112 7.86253C5.13359 7.11635 6.00631 6.67084 6.95583 6.67084C7.90534 6.67084 8.77819 7.11635 9.29077 7.86253L10.9171 10.2305C11.2605 10.7307 11.2134 11.37 10.7999 11.8213Z" fill="white"/>
<path d="M2.69223 7.41662C3.17609 7.24316 3.54368 6.87925 3.72735 6.39187C3.90199 5.9281 3.88768 5.40451 3.68684 4.91744C3.48588 4.4307 3.12036 4.03336 2.65767 3.79848C2.17141 3.55186 1.63732 3.5117 1.15426 3.68548C0.182431 4.03422 -0.263545 5.1551 0.16023 6.18466C0.498746 7.00412 1.28827 7.52141 2.0865 7.52141C2.29032 7.52141 2.49471 7.48765 2.69223 7.41662ZM0.980771 5.88986C0.731061 5.28317 0.950444 4.63781 1.47012 4.45132C1.56396 4.41757 1.66318 4.4008 1.76446 4.4008C1.92079 4.4008 2.08226 4.44064 2.23768 4.51957C2.51714 4.66131 2.74041 4.9074 2.8663 5.21235C2.99207 5.51751 3.00329 5.83966 2.89777 6.11961C2.80107 6.37617 2.61602 6.5648 2.37684 6.65057L2.37638 6.65078C1.85739 6.83749 1.23128 6.49601 0.980771 5.88986Z" fill="white"/>
<path d="M5.84763 5.56136C7.06254 5.56136 8.05096 4.51033 8.05096 3.21844C8.05096 1.92624 7.06254 0.875 5.84763 0.875C4.63284 0.875 3.64453 1.92624 3.64453 3.21844C3.64453 4.51033 4.63284 5.56136 5.84763 5.56136ZM5.84763 1.69563C6.57765 1.69563 7.17171 2.3788 7.17171 3.21844C7.17171 4.05777 6.57765 4.74072 5.84763 4.74072C5.11761 4.74072 4.52378 4.05777 4.52378 3.21844C4.52378 2.3788 5.11761 1.69563 5.84763 1.69563Z" fill="white"/>
<path d="M9.65337 6.13686H9.65348C9.84036 6.19475 10.031 6.22241 10.2209 6.22241C11.1069 6.22241 11.9703 5.62053 12.2998 4.69554C12.4896 4.16309 12.4771 3.60008 12.2647 3.11035C12.0424 2.59776 11.6306 2.22563 11.1048 2.06242C10.5791 1.89943 10.0102 1.96736 9.50334 2.25383C9.01914 2.52759 8.64812 2.9715 8.45872 3.50395C8.05875 4.62718 8.59467 5.8083 9.65337 6.13686ZM9.29311 3.76276C9.41682 3.41508 9.65325 3.12862 9.95892 2.95579C10.2417 2.7959 10.5502 2.7552 10.8275 2.84119C11.1047 2.92728 11.3256 3.13214 11.4496 3.41818C11.5836 3.72729 11.5894 4.08896 11.4654 4.43663C11.2183 5.13048 10.5299 5.54384 9.93077 5.35809C9.33213 5.17224 9.04603 4.4566 9.29311 3.76276Z" fill="white"/>
<path d="M14.2932 5.86352L14.2928 5.8632C13.455 5.28556 12.202 5.53593 11.4994 6.42161C10.7976 7.30771 10.9073 8.49898 11.7439 9.07704C12.049 9.288 12.4095 9.38883 12.7784 9.38883C13.4215 9.38883 14.0905 9.08249 14.5376 8.51917C15.2395 7.63306 15.1298 6.44179 14.2932 5.86352ZM13.8309 8.03093C13.4161 8.55356 12.7147 8.72692 12.2671 8.41748C11.8199 8.10848 11.7926 7.43194 12.2063 6.90963C12.4813 6.56292 12.883 6.37002 13.2532 6.37002C13.4405 6.37002 13.6197 6.41936 13.7703 6.52329C14.2172 6.83262 14.2443 7.50895 13.8309 8.03093Z" fill="white"/>
</g>
<defs>
<clipPath id="clip0">
<rect width="15" height="14" fill="white"/>
</clipPath>
</defs>
</svg>
